<svg width="80" height="80" viewBox="0 0 80 80" fill="none" xmlns="http://www.w3.org/2000/svg">
<path d="M40 6.75C31.1816 6.75 22.7243 10.2531 16.4887 16.4887C10.2531 22.7243 6.75 31.1816 6.75 40C6.75 48.8184 10.2531 57.2757 16.4887 63.5113C22.7243 69.7469 31.1816 73.25 40 73.25C48.8184 73.25 57.2757 69.7469 63.5113 63.5113C69.7469 57.2757 73.25 48.8184 73.25 40C73.25 31.1816 69.7469 22.7243 63.5113 16.4887C57.2757 10.2531 48.8184 6.75 40 6.75Z" fill="white"/>
<path d="M13.335 39.9999C13.335 50.5599 19.4683 59.6766 28.365 63.9999L15.6416 29.1466C14.1633 32.4649 13.335 36.1266 13.335 39.9999ZM58.0066 38.6566C58.0066 35.3616 56.235 33.0733 55.2233 31.3033C53.8683 29.0883 52.5966 27.2416 52.5966 25.0499C52.5966 22.6083 55.0483 20.3166 57.665 20.3166C57.7833 20.3166 57.89 20.3266 58.0083 20.3299C53.2683 15.9733 46.9466 13.3333 40.0016 13.3333C31.02 13.3333 23.08 17.7766 18.2483 24.5816C18.6283 24.7049 18.76 24.6466 19.2666 24.6466C22.0483 24.6466 26.3733 24.3133 26.3733 24.3133C27.8066 24.2183 27.9816 26.3333 26.5383 26.5066C26.5383 26.5066 25.0983 26.6816 23.4916 26.7599L33.3766 56.3899L39.21 38.8883L34.8716 26.8083C33.4366 26.7316 32.0733 26.5549 32.0733 26.5549C30.6366 26.4616 30.8033 24.2633 32.2366 24.3616C32.2366 24.3616 36.65 24.6949 39.265 24.6949C42.0566 24.6949 46.3716 24.3616 46.3716 24.3616C47.8066 24.2666 47.98 26.3816 46.545 26.5549C46.545 26.5549 45.095 26.7299 43.4916 26.8083L53.31 56.1582L55.975 47.2816C57.3316 43.8149 58.0066 40.9483 58.0066 38.6566ZM40.4683 42.3266L32.4683 65.5799C34.8616 66.2899 37.385 66.6666 40.0016 66.6666C43.1033 66.6666 46.0833 66.1266 48.8616 65.1549C48.795 65.0366 48.72 64.9166 48.665 64.7883L40.4683 42.3266ZM63.405 27.1966C63.5233 28.0466 63.585 28.9616 63.585 29.9382C63.585 32.6516 63.075 35.6899 61.5533 39.4999L53.4116 63.0583C61.3416 58.4382 66.6666 49.8366 66.6666 39.9999C66.6666 35.3649 65.4816 31.0066 63.405 27.1966Z" fill="#01579B"/>
<path d="M6.6665 40.0001C6.6665 58.3734 21.6165 73.3334 39.9982 73.3334C58.3832 73.3334 73.3332 58.3734 73.3332 40.0001C73.3332 21.6267 58.3832 6.66675 39.9998 6.66675C21.6165 6.66675 6.6665 21.6267 6.6665 40.0001ZM9.9915 40.0001C9.9915 23.4601 23.4482 10.0017 39.9982 10.0017C56.5482 10.0017 70.0082 23.4601 70.0082 40.0001C70.0082 56.5401 56.5482 70.0017 39.9998 70.0017C23.4532 70.0017 9.9915 56.5401 9.9915 40.0001Z" fill="#01579B"/>
</svg>
