<svg width="32" height="32" viewBox="0 0 32 32" fill="none" xmlns="http://www.w3.org/2000/svg">
<g clip-path="url(#clip0_73_22)">
<path d="M26.3333 0.392578H5.66667C2.53705 0.392578 0 2.92963 0 6.05925V25.9259C0 29.0555 2.53705 31.5926 5.66667 31.5926H26.3333C29.4629 31.5926 32 29.0555 32 25.9259V6.05925C32 2.92963 29.4629 0.392578 26.3333 0.392578Z" fill="#00005B"/>
<path d="M12.8553 19.0592H7.89644L6.88752 22.1994C6.87379 22.2565 6.84054 22.3071 6.79351 22.3424C6.74648 22.3776 6.68862 22.3954 6.6299 22.3926H4.11832C3.97509 22.3926 3.925 22.3138 3.96805 22.1564L8.26141 9.84272C8.30431 9.71394 8.34728 9.58804 8.39019 9.42333C8.44641 9.13693 8.47516 8.84582 8.47605 8.55396C8.47315 8.53355 8.47503 8.51274 8.48155 8.49318C8.48807 8.47363 8.49906 8.45585 8.51364 8.44127C8.52821 8.42669 8.54598 8.4157 8.56554 8.40918C8.5851 8.40265 8.60591 8.40076 8.62632 8.40367H12.0395C12.1395 8.40367 12.1967 8.43945 12.2113 8.51103L17.0842 22.1779C17.1271 22.3211 17.0842 22.3927 16.9554 22.3926H14.1647C14.1168 22.3979 14.0686 22.3856 14.0291 22.3579C13.9896 22.3303 13.9615 22.2892 13.9501 22.2423L12.8553 19.0592ZM8.66929 16.4115H12.061C11.9751 16.1254 11.875 15.8034 11.7604 15.4455C11.6457 15.088 11.5241 14.7051 11.3955 14.297C11.2668 13.8892 11.138 13.4813 11.0091 13.0734C10.8804 12.6656 10.7623 12.272 10.6549 11.8928C10.5476 11.5138 10.451 11.1667 10.3651 10.8517H10.3436C10.2228 11.4314 10.0724 12.0046 9.89285 12.569C9.69226 13.213 9.48834 13.8713 9.28107 14.5439C9.07346 15.2168 8.86953 15.8393 8.66929 16.4115Z" fill="#9999FF"/>
<path d="M24.9843 17.8369H20.7554C20.8072 18.2554 20.9461 18.6583 21.1632 19.0197C21.4033 19.3775 21.7428 19.6573 22.1399 19.8246C22.6782 20.0575 23.2603 20.1716 23.8466 20.1592C24.3117 20.1502 24.7751 20.0993 25.2311 20.0071C25.639 19.9521 26.0387 19.8479 26.4216 19.6968C26.493 19.6398 26.5289 19.6754 26.5289 19.8042V21.8435C26.5325 21.8991 26.5214 21.9546 26.4967 22.0045C26.4721 22.0435 26.4391 22.0765 26.4001 22.1011C25.9754 22.2892 25.5285 22.4223 25.0701 22.4973C24.4475 22.6142 23.8146 22.6682 23.1811 22.6583C22.1647 22.6583 21.3132 22.5009 20.6265 22.186C19.9774 21.9 19.404 21.4663 18.9522 20.9195C18.5301 20.4042 18.2162 19.8092 18.0291 19.1699C17.8438 18.539 17.7498 17.8848 17.75 17.2272C17.748 16.5092 17.8604 15.7954 18.0828 15.1127C18.2969 14.4468 18.6357 13.8276 19.081 13.2881C19.5201 12.7548 20.0693 12.3228 20.691 12.0215C21.3205 11.7139 22.0648 11.6036 22.9235 11.6036C23.6356 11.5856 24.3429 11.7249 24.995 12.0114C25.5434 12.2453 26.0261 12.6099 26.4011 13.0734C26.7528 13.5272 27.0216 14.0395 27.1953 14.5868C27.3645 15.1142 27.4514 15.6644 27.453 16.2183C27.453 16.5332 27.4422 16.8194 27.4207 17.0769C27.3993 17.3345 27.3814 17.5206 27.3671 17.6351C27.3615 17.6824 27.3388 17.726 27.3031 17.7577C27.2675 17.7893 27.2215 17.8068 27.1739 17.8068C27.088 17.8068 26.9413 17.8175 26.7338 17.839C26.5262 17.8605 26.2686 17.8748 25.961 17.8819C25.6531 17.8893 25.3278 17.8369 24.9843 17.8369ZM20.7554 15.8814H23.5675C23.911 15.8814 24.165 15.8778 24.3295 15.8706C24.4396 15.8596 24.546 15.8244 24.6409 15.7675V15.6386C24.6365 15.4708 24.6076 15.3044 24.555 15.1449C24.4392 14.7787 24.2063 14.4606 23.8922 14.2396C23.578 14.0185 23.2 13.9067 22.8162 13.9213C22.4549 13.8995 22.0951 13.9833 21.7806 14.1624C21.4662 14.3416 21.2106 14.6083 21.0452 14.9302C20.8981 15.2297 20.8002 15.5508 20.7554 15.8814V15.8814Z" fill="#9999FF"/>
</g>
<defs>
<clipPath id="clip0_73_22">
<rect width="32" height="31.2" fill="white" transform="translate(0 0.392578)"/>
</clipPath>
</defs>
</svg>
