<svg width="32" height="32" viewBox="0 0 32 32" fill="none" xmlns="http://www.w3.org/2000/svg">
<g clip-path="url(#clip0_73_32)">
<path d="M26.3333 0.0495605H5.66667C2.53705 0.0495605 0 2.58661 0 5.71623V25.5829C0 28.7125 2.53705 31.2496 5.66667 31.2496H26.3333C29.4629 31.2496 32 28.7125 32 25.5829V5.71623C32 2.58661 29.4629 0.0495605 26.3333 0.0495605Z" fill="#330000"/>
<path d="M15.5066 18.7732H10.5478L9.53889 21.9074C9.52514 21.9645 9.49189 22.0151 9.44486 22.0504C9.39784 22.0856 9.33998 22.1034 9.28127 22.1006H6.76968C6.62645 22.1006 6.57637 22.0219 6.61942 21.8645L10.9127 9.49964C10.9557 9.37086 10.9986 9.22417 11.0416 9.05956C11.0977 8.77316 11.1265 8.48205 11.1274 8.1902C11.1245 8.16978 11.1264 8.14897 11.1329 8.12941C11.1394 8.10985 11.1504 8.09208 11.165 8.0775C11.1796 8.06291 11.1973 8.05193 11.2169 8.0454C11.2365 8.03888 11.2573 8.03699 11.2777 8.0399H14.6908C14.7908 8.0399 14.8481 8.07569 14.8626 8.14726L19.7356 21.8859C19.7785 22.0291 19.7355 22.1007 19.6067 22.1006H16.816C16.7681 22.1059 16.7199 22.0936 16.6804 22.0659C16.6409 22.0383 16.6128 21.9972 16.6014 21.9503L15.5066 18.7732ZM11.3206 16.0685H14.7123C14.6265 15.7824 14.5263 15.4603 14.4118 15.1024C14.2971 14.7449 14.1755 14.3621 14.0469 13.954C13.9181 13.5461 13.7892 13.1383 13.6604 12.7304C13.5317 12.3225 13.4136 11.929 13.3063 11.5497C13.1989 11.1707 13.1023 10.8237 13.0165 10.5086H12.995C12.8742 11.0883 12.7237 11.6615 12.5442 12.2259C12.3436 12.8699 12.1397 13.5282 11.9324 14.2008C11.7248 14.8737 11.5208 15.4962 11.3206 16.0685H11.3206Z" fill="#FF9A00"/>
<path d="M22.6329 10.3154C22.414 10.3242 22.1957 10.2867 21.9922 10.2053C21.7887 10.1239 21.6048 10.0005 21.4523 9.84314C21.3002 9.67896 21.1821 9.48633 21.1047 9.27634C21.0274 9.06635 20.9922 8.84314 21.0014 8.61954C20.9936 8.39816 21.0326 8.17761 21.1158 7.97232C21.1991 7.76702 21.3247 7.58159 21.4844 7.42814C21.6427 7.27627 21.8294 7.15729 22.0339 7.07807C22.2384 6.99885 22.4566 6.96097 22.6758 6.96661C23.1911 6.96661 23.5954 7.12046 23.8887 7.42814C24.0368 7.58804 24.1519 7.77558 24.2274 7.98001C24.3029 8.18445 24.3374 8.40178 24.3288 8.61954C24.3378 8.84402 24.3015 9.068 24.2222 9.2782C24.143 9.4884 24.0222 9.68052 23.8672 9.84314C23.7053 10.0028 23.512 10.1272 23.2995 10.2085C23.0871 10.2898 22.8601 10.3262 22.6329 10.3154ZM21.1517 21.8859V11.6249C21.1517 11.4961 21.2087 11.4317 21.3234 11.4317H23.9639C24.0783 11.4317 24.1355 11.4961 24.1356 11.6249V21.8859C24.1356 22.0291 24.0784 22.1007 23.9639 22.1006H21.3449C21.2161 22.1006 21.1517 22.029 21.1517 21.8859V21.8859Z" fill="#FF9A00"/>
</g>
<defs>
<clipPath id="clip0_73_32">
<rect width="32" height="31.2" fill="white" transform="translate(0 0.0495605)"/>
</clipPath>
</defs>
</svg>
