<svg width="32" height="32" viewBox="0 0 32 32" fill="none" xmlns="http://www.w3.org/2000/svg">
<g clip-path="url(#clip0_73_2)">
<path d="M26.3333 0.392578H5.66667C2.53705 0.392578 0 2.92963 0 6.05925V25.9259C0 29.0555 2.53705 31.5926 5.66667 31.5926H26.3333C29.4629 31.5926 32 29.0555 32 25.9259V6.05925C32 2.92963 29.4629 0.392578 26.3333 0.392578Z" fill="#001E36"/>
<path d="M7.20508 22.272V8.55478C7.20508 8.45481 7.24805 8.40451 7.33392 8.40451C7.56263 8.40451 7.77146 8.40116 8.08644 8.39377C8.40108 8.38673 8.74097 8.37958 9.1061 8.37231C9.47108 8.36525 9.85749 8.35809 10.2653 8.35083C10.6732 8.3438 11.0774 8.34022 11.4782 8.34009C12.5656 8.34009 13.4815 8.47605 14.2259 8.74797C14.8974 8.9751 15.5097 9.3491 16.0184 9.84276C16.4496 10.2706 16.7828 10.787 16.9951 11.3562C17.1959 11.9101 17.2977 12.495 17.2957 13.0842C17.2957 14.2293 17.0309 15.1739 16.5014 15.9178C15.9684 16.6649 15.2192 17.2305 14.3547 17.5386C13.4531 17.875 12.4512 17.9891 11.3494 17.9891C11.0344 17.9891 10.8126 17.9855 10.6839 17.9783C10.5551 17.9713 10.3619 17.9677 10.1043 17.9676V22.2505C10.1081 22.2768 10.1057 22.3035 10.0973 22.3287C10.0889 22.3538 10.0748 22.3767 10.056 22.3954C10.0373 22.4142 10.0144 22.4283 9.98927 22.4367C9.96412 22.445 9.93737 22.4475 9.91112 22.4437H7.35534C7.25508 22.4437 7.20508 22.3867 7.20508 22.272ZM10.1043 10.9805V15.4545C10.2901 15.4689 10.4619 15.4761 10.6195 15.4759H11.3279C11.8491 15.4742 12.3669 15.3916 12.8628 15.2309C13.2881 15.1046 13.6681 14.8587 13.9576 14.5225C14.2366 14.1935 14.3762 13.7355 14.3762 13.1487C14.3875 12.7334 14.2795 12.3236 14.0649 11.968C13.8393 11.624 13.5133 11.358 13.1311 11.2059C12.6321 11.012 12.0991 10.9207 11.564 10.9376C11.2205 10.9376 10.9164 10.9412 10.6517 10.9483C10.3868 10.9557 10.2043 10.9664 10.1043 10.9805V10.9805Z" fill="#31A8FF"/>
<path d="M25.5957 14.6409C25.1923 14.4336 24.7626 14.282 24.3185 14.1901C23.829 14.0778 23.3287 14.0202 22.8265 14.0184C22.5549 14.011 22.2837 14.0436 22.0215 14.115C21.8546 14.1522 21.7063 14.2472 21.6029 14.3833C21.5329 14.4922 21.4957 14.6189 21.4956 14.7483C21.4995 14.8738 21.5448 14.9945 21.6244 15.0917C21.7498 15.2384 21.903 15.3588 22.0752 15.4459C22.3812 15.6107 22.6966 15.7577 23.0197 15.886C23.7402 16.1272 24.4286 16.4551 25.0698 16.8627C25.5066 17.1384 25.868 17.5183 26.1216 17.9682C26.3349 18.3943 26.4417 18.8657 26.4329 19.3421C26.4458 19.9712 26.266 20.5891 25.9177 21.1131C25.5449 21.645 25.027 22.0586 24.4257 22.3045C23.7744 22.5906 22.9694 22.7338 22.0108 22.7339C21.4018 22.74 20.7938 22.6825 20.1968 22.5621C19.7265 22.4759 19.2686 22.3317 18.8337 22.1328C18.7868 22.1086 18.7477 22.0715 18.7211 22.0258C18.6945 21.9802 18.6814 21.928 18.6834 21.8752V19.5568C18.6808 19.5341 18.6845 19.5111 18.6939 19.4903C18.7034 19.4695 18.7183 19.4517 18.7371 19.4387C18.7556 19.4283 18.7767 19.4237 18.7978 19.4257C18.8189 19.4276 18.8389 19.4359 18.8552 19.4495C19.3688 19.7523 19.9264 19.9732 20.5081 20.1042C21.0208 20.2327 21.5467 20.3011 22.0752 20.3081C22.5759 20.3081 22.9445 20.2437 23.1807 20.1149C23.2874 20.0661 23.3776 19.9874 23.4405 19.8883C23.5034 19.7893 23.5362 19.6741 23.5349 19.5568C23.5349 19.371 23.4276 19.1921 23.2129 19.0201C22.9983 18.8484 22.5618 18.6409 21.9034 18.3976C21.2294 18.163 20.5903 17.838 20.0036 17.4316C19.584 17.1398 19.2385 16.7538 18.9947 16.3046C18.7836 15.8816 18.6769 15.4142 18.6834 14.9415C18.6822 14.3735 18.8383 13.8162 19.1342 13.3315C19.4717 12.7976 19.9562 12.3727 20.5296 12.1079C21.1592 11.7932 21.9463 11.6358 22.8909 11.6356C23.4442 11.6311 23.9969 11.6706 24.5439 11.7537C24.94 11.8039 25.3272 11.9086 25.6946 12.0649C25.7238 12.0733 25.7506 12.0883 25.7729 12.1088C25.7953 12.1293 25.8125 12.1547 25.8234 12.183C25.8379 12.2354 25.8451 12.2896 25.8449 12.344V14.5121C25.8464 14.5374 25.8412 14.5625 25.8299 14.5851C25.8186 14.6077 25.8016 14.627 25.7805 14.6409C25.7518 14.6552 25.7202 14.6626 25.6881 14.6626C25.6561 14.6626 25.6244 14.6552 25.5957 14.6409V14.6409Z" fill="#31A8FF"/>
</g>
<defs>
<clipPath id="clip0_73_2">
<rect width="32" height="31.2" fill="white" transform="translate(0 0.392578)"/>
</clipPath>
</defs>
</svg>
