<svg width="32" height="32" viewBox="0 0 32 32" fill="none" xmlns="http://www.w3.org/2000/svg">
<g clip-path="url(#clip0_73_42)">
<path d="M5.66667 0.0495605H26.3333C29.4667 0.0495605 32 2.58289 32 5.71623V25.5829C32 28.7162 29.4667 31.2496 26.3333 31.2496H5.66667C2.53333 31.2496 0 28.7162 0 25.5829V5.71623C0 2.58289 2.53333 0.0495605 5.66667 0.0495605Z" fill="#00005B"/>
<path d="M7.59961 21.9296V8.20958C7.59961 8.11624 7.63961 8.06291 7.73294 8.06291C7.95961 8.06291 8.17294 8.06291 8.47961 8.04958C8.79961 8.03624 9.13294 8.03624 9.49294 8.02291C9.85294 8.00958 10.2396 8.00958 10.6529 7.99624C11.0663 7.98291 11.4663 7.98291 11.8663 7.98291C12.9596 7.98291 13.8663 8.11624 14.6129 8.39624C15.2796 8.62291 15.8929 8.99624 16.3996 9.48958C16.8263 9.91624 17.1596 10.4362 17.3729 11.0096C17.5729 11.5696 17.6796 12.1429 17.6796 12.7429C17.6796 13.8896 17.4129 14.8362 16.8796 15.5829C16.3463 16.3296 15.5996 16.8896 14.7329 17.2096C13.8263 17.5429 12.8263 17.6629 11.7329 17.6629C11.4129 17.6629 11.1996 17.6629 11.0663 17.6496C10.9329 17.6362 10.7463 17.6362 10.4929 17.6362V21.9162C10.5063 22.0096 10.4396 22.0896 10.3463 22.1029C10.3329 22.1029 10.3196 22.1029 10.2929 22.1029H7.75961C7.65294 22.1029 7.59961 22.0496 7.59961 21.9296ZM10.5063 10.6362V15.1162C10.6929 15.1296 10.8663 15.1429 11.0263 15.1429H11.7329C12.2529 15.1429 12.7729 15.0629 13.2663 14.9029C13.6929 14.7829 14.0663 14.5296 14.3596 14.1962C14.6396 13.8629 14.7729 13.4096 14.7729 12.8229C14.7863 12.4096 14.6796 11.9962 14.4663 11.6362C14.2396 11.2896 13.9196 11.0229 13.5329 10.8762C13.0396 10.6762 12.5063 10.5962 11.9596 10.6096C11.6129 10.6096 11.3063 10.6096 11.0529 10.6229C10.7863 10.6096 10.5996 10.6229 10.5063 10.6362Z" fill="#9999FF"/>
<path d="M19.546 11.4095H21.8794C22.0127 11.4095 22.1194 11.5029 22.1594 11.6229C22.1994 11.7295 22.226 11.8362 22.2394 11.9562C22.266 12.0895 22.2927 12.2362 22.306 12.3695C22.3194 12.5162 22.3327 12.6762 22.3327 12.8495C22.7327 12.3829 23.2127 11.9962 23.7594 11.7029C24.3727 11.3562 25.0794 11.1829 25.786 11.1829C25.8794 11.1695 25.9594 11.2362 25.9727 11.3295C25.9727 11.3429 25.9727 11.3562 25.9727 11.3829V13.9829C25.9727 14.0895 25.906 14.1295 25.7594 14.1295C25.2794 14.1162 24.786 14.1562 24.3194 14.2629C23.9327 14.3429 23.5594 14.4629 23.1994 14.6229C22.946 14.7429 22.706 14.9029 22.5194 15.1162V21.9162C22.5194 22.0495 22.466 22.1028 22.346 22.1028H19.7194C19.6127 22.1162 19.5194 22.0495 19.506 21.9429C19.506 21.9295 19.506 21.9029 19.506 21.8895V14.5029C19.506 14.1829 19.506 13.8495 19.4927 13.5029C19.4794 13.1562 19.4794 12.8095 19.466 12.4629C19.466 12.1562 19.4394 11.8629 19.4127 11.5562C19.3994 11.4895 19.4394 11.4229 19.506 11.4095C19.506 11.3962 19.5327 11.3962 19.546 11.4095Z" fill="#9999FF"/>
</g>
<defs>
<clipPath id="clip0_73_42">
<rect width="32" height="31.2" fill="white" transform="translate(0 0.0495605)"/>
</clipPath>
</defs>
</svg>
