<svg width="32" height="32" viewBox="0 0 32 32" fill="none" xmlns="http://www.w3.org/2000/svg">
<g clip-path="url(#clip0_73_12)">
<path d="M26.3333 0.192383H5.66667C2.53705 0.192383 0 2.72944 0 5.85905V25.7257C0 28.8553 2.53705 31.3924 5.66667 31.3924H26.3333C29.4629 31.3924 32 28.8553 32 25.7257V5.85905C32 2.72944 29.4629 0.192383 26.3333 0.192383Z" fill="#470137"/>
<path d="M16.8226 8.39746L12.8297 14.9877L17.1016 21.9859C17.129 22.0348 17.1367 22.0924 17.1231 22.1468C17.1086 22.1972 17.0587 22.1655 16.9728 22.1796H13.9246C13.7099 22.1796 13.5596 22.172 13.4737 22.0288C13.1873 21.4707 12.9011 20.9161 12.6151 20.3651C12.3286 19.8144 12.0245 19.2526 11.7028 18.68C11.3808 18.1078 11.0624 17.5282 10.7475 16.9412H10.726C10.4396 17.5137 10.1426 18.0862 9.83514 18.6585C9.52726 19.2311 9.22316 19.8 8.92284 20.3651C8.62231 20.9306 8.31463 21.4923 7.99979 22.0503C7.94243 22.1791 7.84211 22.1924 7.6992 22.1924H4.75832C4.70129 22.1924 4.66906 22.2149 4.6617 22.1576C4.65363 22.1052 4.6651 22.0518 4.69393 22.0073L8.83696 15.2024L4.80122 8.37598C4.75832 8.31898 4.75116 8.27248 4.77974 8.23646C4.79559 8.21815 4.81548 8.20376 4.83783 8.19445C4.86019 8.18513 4.88441 8.18114 4.90858 8.18278H7.93534C8.00133 8.17914 8.06732 8.19015 8.12856 8.21501C8.17989 8.24409 8.22393 8.28446 8.25734 8.33308C8.51496 8.9056 8.80118 9.47804 9.116 10.0504C9.43065 10.623 9.74907 11.1882 10.0713 11.7463C10.3933 12.3044 10.6902 12.8697 10.9622 13.4421H10.9836C11.2697 12.8555 11.5595 12.283 11.853 11.7248C12.1462 11.1667 12.4467 10.605 12.7546 10.0397C13.0622 9.47448 13.3592 8.91278 13.6455 8.35453C13.6619 8.30155 13.6915 8.25357 13.7314 8.21501C13.7844 8.1881 13.844 8.17692 13.9031 8.18278H16.7152C16.7423 8.17609 16.7709 8.17882 16.7963 8.19053C16.8216 8.20224 16.8422 8.22222 16.8547 8.2472C16.8672 8.27218 16.8708 8.30066 16.865 8.32797C16.8591 8.35528 16.8442 8.37979 16.8226 8.39747L16.8226 8.39746Z" fill="#FF61F6"/>
<path d="M22.9829 22.4581C21.9948 22.4732 21.0158 22.2678 20.1171 21.8571C19.2798 21.4696 18.5799 20.837 18.11 20.0431C17.6232 19.2348 17.3799 18.2223 17.3801 17.0056C17.372 16.0204 17.6237 15.0504 18.11 14.1935C18.6108 13.3206 19.3473 12.6064 20.2352 12.1327C21.1652 11.6175 22.2887 11.3599 23.6054 11.3599C23.6768 11.3599 23.7698 11.3635 23.8844 11.3706C23.9988 11.378 24.1348 11.3887 24.2923 11.4028V7.17387C24.2923 7.07391 24.3353 7.02361 24.4212 7.02361H27.1259C27.1434 7.02111 27.1612 7.02271 27.178 7.0283C27.1948 7.03388 27.21 7.0433 27.2225 7.05579C27.235 7.06829 27.2444 7.08352 27.25 7.10028C27.2556 7.11705 27.2572 7.13489 27.2548 7.15238V19.8392C27.2548 20.0827 27.2655 20.3475 27.2869 20.6335C27.3084 20.9199 27.3263 21.1775 27.3406 21.4063C27.3433 21.4508 27.3324 21.4952 27.3094 21.5335C27.2864 21.5718 27.2524 21.6023 27.2118 21.6209C26.514 21.912 25.7872 22.1278 25.0437 22.2649C24.3638 22.3904 23.6742 22.4551 22.9829 22.4581ZM24.2923 19.7963V13.9359C24.1763 13.9044 24.0578 13.8829 23.9381 13.8715C23.7919 13.8568 23.645 13.8496 23.498 13.85C22.9771 13.8448 22.4623 13.9625 21.9954 14.1935C21.5406 14.4195 21.1523 14.7598 20.8684 15.1809C20.5749 15.6103 20.4282 16.1756 20.4283 16.8768C20.4179 17.3447 20.4943 17.8106 20.6537 18.2507C20.7834 18.6053 20.9885 18.9275 21.2548 19.1952C21.5097 19.4415 21.8184 19.6252 22.1564 19.7319C22.5134 19.8475 22.8866 19.9055 23.2619 19.9036C23.4622 19.9036 23.6482 19.8964 23.82 19.8821C23.98 19.8701 24.1383 19.8413 24.2923 19.7963V19.7963Z" fill="#FF61F6"/>
</g>
<defs>
<clipPath id="clip0_73_12">
<rect width="32" height="31.2" fill="white" transform="translate(0 0.192383)"/>
</clipPath>
</defs>
</svg>
