<svg width="80" height="80" viewBox="0 0 80 80" fill="none" xmlns="http://www.w3.org/2000/svg">
<path d="M70.3335 36.8333L43.1668 9.66659C42.3335 8.83325 41.1668 8.33325 40.0002 8.33325C38.8335 8.33325 37.6668 8.83325 36.8335 9.66659L31.0002 15.4999L37.8335 22.3333C38.5002 21.9999 39.1668 21.8333 40.0002 21.8333C42.8335 21.8333 45.0002 23.9999 45.0002 26.8333C45.0002 27.6666 44.8335 28.3333 44.5002 28.9999L51.1668 35.6666C51.8335 35.3333 52.5002 35.1666 53.3335 35.1666C56.1668 35.1666 58.3335 37.3333 58.3335 40.1666C58.3335 42.9999 56.1668 45.1666 53.3335 45.1666C50.5002 45.1666 48.3335 42.9999 48.3335 40.1666C48.3335 39.3333 48.5002 38.6666 48.8335 37.9999L42.1668 31.3333C42.0002 31.3333 41.8335 31.4999 41.6668 31.4999V48.8332C43.6668 49.4999 45.0002 51.3332 45.0002 53.4999C45.0002 56.3332 42.8335 58.4999 40.0002 58.4999C37.1668 58.4999 35.0002 56.3332 35.0002 53.4999C35.0002 51.3332 36.3335 49.4999 38.3335 48.8332V31.3333C36.3335 30.6666 35.0002 28.8333 35.0002 26.6666C35.0002 25.8333 35.1668 25.1666 35.5002 24.4999L28.6668 17.6666L9.66683 36.8333C8.8335 37.6666 8.3335 38.8333 8.3335 39.9999C8.3335 41.1666 8.8335 42.3333 9.66683 43.1666L36.8335 70.3333C37.6668 71.1666 38.8335 71.6666 40.0002 71.6666C41.1668 71.6666 42.3335 71.1666 43.1668 70.3333L70.3335 43.1666C71.1668 42.3333 71.6668 41.1666 71.6668 39.9999C71.6668 38.8333 71.1668 37.6666 70.3335 36.8333Z" fill="#F4511E"/>
</svg>
