<svg width="179" height="24" viewBox="0 0 179 24" fill="none" xmlns="http://www.w3.org/2000/svg">
<path d="M7.32 23.544C5.976 23.544 4.84533 23.3093 3.928 22.84C3.01067 22.3493 2.264 21.7093 1.688 20.92C1.112 20.1307 0.696 19.224 0.44 18.2C0.205333 17.1547 0.0880001 16.088 0.0880001 15C0.0880001 13.5707 0.269333 12.2907 0.632 11.16C0.994667 10.0293 1.50667 9.08 2.168 8.312C2.85067 7.544 3.66133 6.95733 4.6 6.552C5.56 6.14667 6.63733 5.944 7.832 5.944C8.81333 5.944 9.69867 6.09333 10.488 6.392C11.2773 6.69067 11.9387 7.064 12.472 7.512C13.0053 7.96 13.4107 8.42933 13.688 8.92C13.9867 9.41067 14.136 9.848 14.136 10.232C14.136 10.7867 13.944 11.2347 13.56 11.576C13.1973 11.9173 12.7387 12.088 12.184 12.088C11.8213 12.088 11.512 11.9813 11.256 11.768C11 11.5547 10.7547 11.32 10.52 11.064C10.136 10.6373 9.72 10.2747 9.272 9.976C8.84533 9.67733 8.28 9.528 7.576 9.528C6.808 9.528 6.2 9.72 5.752 10.104C5.304 10.4667 4.952 10.9253 4.696 11.48C4.46133 12.0133 4.312 12.5893 4.248 13.208C4.184 13.8267 4.152 14.3813 4.152 14.872C4.152 15.4267 4.19467 16.0027 4.28 16.6C4.36533 17.1973 4.536 17.752 4.792 18.264C5.048 18.7547 5.4 19.1707 5.848 19.512C6.296 19.832 6.872 19.992 7.576 19.992C8.38667 19.992 9.016 19.8213 9.464 19.48C9.912 19.1387 10.2853 18.8187 10.584 18.52C10.8613 18.2427 11.096 18.0293 11.288 17.88C11.5013 17.7093 11.7787 17.624 12.12 17.624C12.5467 17.624 12.952 17.7947 13.336 18.136C13.72 18.4773 13.912 18.8933 13.912 19.384C13.912 19.8107 13.752 20.2693 13.432 20.76C13.1333 21.2293 12.696 21.6773 12.12 22.104C11.5653 22.5093 10.8827 22.8507 10.072 23.128C9.26133 23.4053 8.344 23.544 7.32 23.544ZM15.5255 14.808C15.5255 13.4427 15.7068 12.216 16.0695 11.128C16.4535 10.0187 16.9868 9.08 17.6695 8.312C18.3522 7.544 19.1628 6.95733 20.1015 6.552C21.0402 6.14667 22.0855 5.944 23.2375 5.944C24.3895 5.944 25.4348 6.136 26.3735 6.52C27.3122 6.88267 28.1122 7.43733 28.7735 8.184C29.4562 8.90933 29.9788 9.82667 30.3415 10.936C30.7042 12.024 30.8855 13.2933 30.8855 14.744C30.8855 16.1307 30.6935 17.368 30.3095 18.456C29.9468 19.544 29.4242 20.472 28.7415 21.24C28.0802 21.9867 27.2802 22.5627 26.3415 22.968C25.4028 23.352 24.3575 23.544 23.2055 23.544C22.0108 23.544 20.9442 23.352 20.0055 22.968C19.0668 22.5627 18.2562 21.9867 17.5735 21.24C16.9122 20.472 16.4002 19.5547 16.0375 18.488C15.6962 17.4 15.5255 16.1733 15.5255 14.808ZM23.1735 20.056C24.3255 20.056 25.2215 19.64 25.8615 18.808C26.5228 17.9547 26.8535 16.6427 26.8535 14.872C26.8535 13.0587 26.5335 11.7147 25.8935 10.84C25.2535 9.96533 24.3468 9.528 23.1735 9.528C22.0642 9.528 21.1895 9.96533 20.5495 10.84C19.9095 11.7147 19.5895 13.0267 19.5895 14.776C19.5895 16.5893 19.9095 17.9227 20.5495 18.776C21.1895 19.6293 22.0642 20.056 23.1735 20.056ZM33.8248 8.024C33.8248 7.40533 33.9848 6.95733 34.3048 6.68C34.6248 6.40267 35.1261 6.264 35.8088 6.264C36.3848 6.264 36.8648 6.40267 37.2488 6.68C37.6328 6.936 37.8248 7.384 37.8248 8.024V16.696C37.8248 17.144 37.8354 17.5493 37.8568 17.912C37.8994 18.2533 37.9741 18.5307 38.0808 18.744C38.2514 19.1707 38.5074 19.4693 38.8488 19.64C39.1901 19.8107 39.6061 19.896 40.0968 19.896C40.6301 19.896 41.0781 19.8 41.4408 19.608C41.8248 19.416 42.1448 19.1813 42.4008 18.904C42.6568 18.6267 42.8488 18.3387 42.9768 18.04C43.1048 17.72 43.2008 17.432 43.2648 17.176C43.3501 16.792 43.3928 16.3653 43.3928 15.896C43.4141 15.4267 43.4248 15.0213 43.4248 14.68V8.12C43.4248 7.45867 43.5741 6.98933 43.8728 6.712C44.1928 6.41333 44.7261 6.264 45.4728 6.264C46.0701 6.264 46.5394 6.40267 46.8808 6.68C47.2221 6.95733 47.3928 7.416 47.3928 8.056V21.272C47.3928 21.848 47.2434 22.3173 46.9448 22.68C46.6461 23.0427 46.1341 23.224 45.4088 23.224C44.9181 23.224 44.4808 23.1067 44.0968 22.872C43.7128 22.616 43.5208 22.1147 43.5208 21.368V21.048C43.1581 21.6667 42.6034 22.2427 41.8568 22.776C41.1314 23.288 40.1821 23.544 39.0088 23.544C37.1528 23.544 35.7768 22.904 34.8808 21.624C34.3688 20.8987 34.0594 20.0667 33.9528 19.128C33.8674 18.1893 33.8248 17.3253 33.8248 16.536V8.024ZM57.6013 23.544C56.2573 23.544 55.1266 23.3093 54.2093 22.84C53.2919 22.3493 52.5453 21.7093 51.9693 20.92C51.3933 20.1307 50.9773 19.224 50.7213 18.2C50.4866 17.1547 50.3693 16.088 50.3693 15C50.3693 13.5707 50.5506 12.2907 50.9133 11.16C51.2759 10.0293 51.7879 9.08 52.4493 8.312C53.1319 7.544 53.9426 6.95733 54.8813 6.552C55.8413 6.14667 56.9186 5.944 58.1133 5.944C59.0946 5.944 59.9799 6.09333 60.7693 6.392C61.5586 6.69067 62.2199 7.064 62.7533 7.512C63.2866 7.96 63.6919 8.42933 63.9693 8.92C64.2679 9.41067 64.4173 9.848 64.4173 10.232C64.4173 10.7867 64.2253 11.2347 63.8413 11.576C63.4786 11.9173 63.0199 12.088 62.4653 12.088C62.1026 12.088 61.7933 11.9813 61.5373 11.768C61.2813 11.5547 61.0359 11.32 60.8013 11.064C60.4173 10.6373 60.0013 10.2747 59.5533 9.976C59.1266 9.67733 58.5613 9.528 57.8573 9.528C57.0893 9.528 56.4813 9.72 56.0333 10.104C55.5853 10.4667 55.2333 10.9253 54.9773 11.48C54.7426 12.0133 54.5933 12.5893 54.5293 13.208C54.4653 13.8267 54.4333 14.3813 54.4333 14.872C54.4333 15.4267 54.4759 16.0027 54.5613 16.6C54.6466 17.1973 54.8173 17.752 55.0733 18.264C55.3293 18.7547 55.6813 19.1707 56.1293 19.512C56.5773 19.832 57.1533 19.992 57.8573 19.992C58.6679 19.992 59.2973 19.8213 59.7453 19.48C60.1933 19.1387 60.5666 18.8187 60.8653 18.52C61.1426 18.2427 61.3773 18.0293 61.5693 17.88C61.7826 17.7093 62.0599 17.624 62.4013 17.624C62.8279 17.624 63.2333 17.7947 63.6173 18.136C64.0013 18.4773 64.1933 18.8933 64.1933 19.384C64.1933 19.8107 64.0333 20.2693 63.7133 20.76C63.4146 21.2293 62.9773 21.6773 62.4013 22.104C61.8466 22.5093 61.1639 22.8507 60.3533 23.128C59.5426 23.4053 58.6253 23.544 57.6013 23.544ZM65.8068 14.808C65.8068 13.4427 65.9881 12.216 66.3508 11.128C66.7348 10.0187 67.2681 9.08 67.9508 8.312C68.6334 7.544 69.4441 6.95733 70.3828 6.552C71.3214 6.14667 72.3668 5.944 73.5188 5.944C74.6708 5.944 75.7161 6.136 76.6548 6.52C77.5934 6.88267 78.3934 7.43733 79.0548 8.184C79.7374 8.90933 80.2601 9.82667 80.6228 10.936C80.9854 12.024 81.1667 13.2933 81.1667 14.744C81.1667 16.1307 80.9748 17.368 80.5908 18.456C80.2281 19.544 79.7054 20.472 79.0228 21.24C78.3614 21.9867 77.5614 22.5627 76.6228 22.968C75.6841 23.352 74.6388 23.544 73.4868 23.544C72.2921 23.544 71.2254 23.352 70.2868 22.968C69.3481 22.5627 68.5374 21.9867 67.8548 21.24C67.1934 20.472 66.6814 19.5547 66.3188 18.488C65.9774 17.4 65.8068 16.1733 65.8068 14.808ZM73.4548 20.056C74.6068 20.056 75.5028 19.64 76.1428 18.808C76.8041 17.9547 77.1348 16.6427 77.1348 14.872C77.1348 13.0587 76.8148 11.7147 76.1748 10.84C75.5348 9.96533 74.6281 9.528 73.4548 9.528C72.3454 9.528 71.4708 9.96533 70.8308 10.84C70.1908 11.7147 69.8708 13.0267 69.8708 14.776C69.8708 16.5893 70.1908 17.9227 70.8308 18.776C71.4708 19.6293 72.3454 20.056 73.4548 20.056ZM84.106 8.024C84.106 7.40533 84.266 6.95733 84.586 6.68C84.906 6.40267 85.4073 6.264 86.09 6.264C86.666 6.264 87.146 6.40267 87.53 6.68C87.914 6.936 88.106 7.384 88.106 8.024V16.696C88.106 17.144 88.1167 17.5493 88.138 17.912C88.1807 18.2533 88.2553 18.5307 88.362 18.744C88.5327 19.1707 88.7887 19.4693 89.13 19.64C89.4713 19.8107 89.8873 19.896 90.378 19.896C90.9113 19.896 91.3593 19.8 91.722 19.608C92.106 19.416 92.426 19.1813 92.682 18.904C92.938 18.6267 93.13 18.3387 93.258 18.04C93.386 17.72 93.482 17.432 93.546 17.176C93.6313 16.792 93.674 16.3653 93.674 15.896C93.6953 15.4267 93.706 15.0213 93.706 14.68V8.12C93.706 7.45867 93.8553 6.98933 94.154 6.712C94.474 6.41333 95.0073 6.264 95.754 6.264C96.3513 6.264 96.8207 6.40267 97.162 6.68C97.5033 6.95733 97.674 7.416 97.674 8.056V21.272C97.674 21.848 97.5247 22.3173 97.226 22.68C96.9273 23.0427 96.4153 23.224 95.69 23.224C95.1993 23.224 94.762 23.1067 94.378 22.872C93.994 22.616 93.802 22.1147 93.802 21.368V21.048C93.4393 21.6667 92.8847 22.2427 92.138 22.776C91.4127 23.288 90.4633 23.544 89.29 23.544C87.434 23.544 86.058 22.904 85.162 21.624C84.65 20.8987 84.3407 20.0667 84.234 19.128C84.1487 18.1893 84.106 17.3253 84.106 16.536V8.024ZM114.601 23.544C113.257 23.544 112.127 23.3093 111.209 22.84C110.292 22.3493 109.545 21.7093 108.969 20.92C108.393 20.1307 107.977 19.224 107.721 18.2C107.487 17.1547 107.369 16.088 107.369 15C107.369 13.5707 107.551 12.2907 107.913 11.16C108.276 10.0293 108.788 9.08 109.449 8.312C110.132 7.544 110.943 6.95733 111.881 6.552C112.841 6.14667 113.919 5.944 115.113 5.944C116.095 5.944 116.98 6.09333 117.769 6.392C118.559 6.69067 119.22 7.064 119.753 7.512C120.287 7.96 120.692 8.42933 120.969 8.92C121.268 9.41067 121.417 9.848 121.417 10.232C121.417 10.7867 121.225 11.2347 120.841 11.576C120.479 11.9173 120.02 12.088 119.465 12.088C119.103 12.088 118.793 11.9813 118.537 11.768C118.281 11.5547 118.036 11.32 117.801 11.064C117.417 10.6373 117.001 10.2747 116.553 9.976C116.127 9.67733 115.561 9.528 114.857 9.528C114.089 9.528 113.481 9.72 113.033 10.104C112.585 10.4667 112.233 10.9253 111.977 11.48C111.743 12.0133 111.593 12.5893 111.529 13.208C111.465 13.8267 111.433 14.3813 111.433 14.872C111.433 15.4267 111.476 16.0027 111.561 16.6C111.647 17.1973 111.817 17.752 112.073 18.264C112.329 18.7547 112.681 19.1707 113.129 19.512C113.577 19.832 114.153 19.992 114.857 19.992C115.668 19.992 116.297 19.8213 116.745 19.48C117.193 19.1387 117.567 18.8187 117.865 18.52C118.143 18.2427 118.377 18.0293 118.569 17.88C118.783 17.7093 119.06 17.624 119.401 17.624C119.828 17.624 120.233 17.7947 120.617 18.136C121.001 18.4773 121.193 18.8933 121.193 19.384C121.193 19.8107 121.033 20.2693 120.713 20.76C120.415 21.2293 119.977 21.6773 119.401 22.104C118.847 22.5093 118.164 22.8507 117.353 23.128C116.543 23.4053 115.625 23.544 114.601 23.544ZM123.887 2.424C123.887 1.18667 124.581 0.567999 125.967 0.567999C126.458 0.567999 126.895 0.706666 127.279 0.983999C127.685 1.24 127.887 1.67733 127.887 2.296V21.432C127.887 22.072 127.717 22.5307 127.375 22.808C127.034 23.0853 126.554 23.224 125.935 23.224C124.57 23.224 123.887 22.648 123.887 21.496V2.424ZM134.965 15.864C135.072 18.6587 136.288 20.056 138.613 20.056C139.296 20.056 139.829 19.9813 140.213 19.832C140.619 19.6613 141.056 19.4267 141.525 19.128L142.293 18.616C142.549 18.4453 142.848 18.36 143.189 18.36C143.595 18.36 143.968 18.5413 144.309 18.904C144.651 19.2667 144.821 19.7147 144.821 20.248C144.821 20.8027 144.608 21.2933 144.181 21.72C143.755 22.1253 143.221 22.4667 142.581 22.744C141.941 23.0213 141.248 23.224 140.501 23.352C139.776 23.48 139.104 23.544 138.485 23.544C136.075 23.544 134.197 22.8293 132.853 21.4C131.531 19.9707 130.869 17.8267 130.869 14.968C130.869 13.8373 131.008 12.7387 131.285 11.672C131.584 10.584 132.043 9.61333 132.661 8.76C133.28 7.90667 134.059 7.224 134.997 6.712C135.936 6.2 137.067 5.944 138.389 5.944C140.48 5.944 142.144 6.65867 143.381 8.088C144.64 9.496 145.269 11.544 145.269 14.232C145.269 14.8507 145.099 15.2773 144.757 15.512C144.416 15.7467 143.936 15.864 143.317 15.864H134.965ZM141.301 12.696C141.301 12.248 141.237 11.8213 141.109 11.416C141.003 11.0107 140.821 10.6587 140.565 10.36C140.331 10.04 140.021 9.784 139.637 9.592C139.253 9.4 138.805 9.304 138.293 9.304C137.483 9.304 136.768 9.60267 136.149 10.2C135.552 10.7973 135.2 11.6293 135.093 12.696H141.301ZM148.106 8.216C148.106 7.64 148.255 7.17067 148.554 6.808C148.853 6.44533 149.365 6.264 150.09 6.264C150.602 6.264 151.05 6.38133 151.434 6.616C151.818 6.82933 152.01 7.30933 152.01 8.056V8.376C152.373 7.736 152.895 7.17067 153.578 6.68C154.261 6.18933 155.157 5.944 156.266 5.944C157.311 5.944 158.186 6.15733 158.89 6.584C159.615 6.98933 160.191 7.66133 160.618 8.6C161.173 7.66133 161.845 6.98933 162.634 6.584C163.423 6.15733 164.33 5.944 165.354 5.944C166.357 5.944 167.189 6.104 167.85 6.424C168.511 6.744 169.077 7.23467 169.546 7.896C170.058 8.62133 170.357 9.44267 170.442 10.36C170.527 11.2773 170.57 12.1307 170.57 12.92V21.464C170.57 22.0827 170.41 22.5307 170.09 22.808C169.77 23.0853 169.269 23.224 168.586 23.224C168.01 23.224 167.53 23.096 167.146 22.84C166.783 22.5627 166.602 22.104 166.602 21.464V12.824C166.602 11.9067 166.517 11.224 166.346 10.776C166.175 10.3493 165.909 10.0507 165.546 9.88C165.183 9.70933 164.757 9.624 164.266 9.624C163.754 9.624 163.327 9.70933 162.986 9.88C162.666 10.0507 162.399 10.264 162.186 10.52C161.994 10.776 161.845 11.0533 161.738 11.352C161.631 11.6507 161.557 11.928 161.514 12.184C161.407 12.568 161.343 13.0053 161.322 13.496C161.322 13.9867 161.322 14.4027 161.322 14.744V21.464C161.322 22.0827 161.162 22.5307 160.842 22.808C160.522 23.0853 160.021 23.224 159.338 23.224C158.762 23.224 158.282 23.096 157.898 22.84C157.535 22.5627 157.354 22.104 157.354 21.464V12.824C157.354 12.376 157.333 11.9813 157.29 11.64C157.269 11.2773 157.205 10.9893 157.098 10.776C156.927 10.3493 156.661 10.0507 156.298 9.88C155.935 9.70933 155.509 9.624 155.018 9.624C154.506 9.624 154.079 9.70933 153.738 9.88C153.418 10.0507 153.151 10.264 152.938 10.52C152.746 10.776 152.597 11.0533 152.49 11.352C152.383 11.6507 152.309 11.928 152.266 12.184C152.181 12.568 152.127 13.0053 152.106 13.496C152.106 13.9867 152.106 14.4027 152.106 14.744V21.368C152.106 22.0293 151.946 22.5093 151.626 22.808C151.327 23.0853 150.805 23.224 150.058 23.224C149.461 23.224 148.981 23.0853 148.618 22.808C148.277 22.5307 148.106 22.072 148.106 21.432V8.216ZM175.925 23.608C175.221 23.608 174.634 23.3627 174.165 22.872C173.695 22.36 173.461 21.7307 173.461 20.984C173.461 20.2373 173.695 19.6293 174.165 19.16C174.634 18.6693 175.221 18.424 175.925 18.424C176.65 18.424 177.226 18.6693 177.653 19.16C178.101 19.6293 178.325 20.2373 178.325 20.984C178.325 21.7307 178.101 22.36 177.653 22.872C177.205 23.3627 176.629 23.608 175.925 23.608Z" fill="#E46902"/>
</svg>
